<svg xmlns="http://www.w3.org/2000/svg" width="800" height="800"><path fill="#FFF" d="M307.7 496.8c10.399 10.7 15.6 23.101 15.6 37.4 0 15-5.2 27.8-15.6 38.2-10.4 10.399-23 15.6-37.8 15.6-14.5 0-27.1-5.2-37.8-15.6-10.7-10.4-16-23.101-16-38.2 0-14.3 5.3-26.7 16-37.4 10.6-10.6 23.2-16 37.8-16 14.8 0 27.4 5.4 37.8 16z"/><path fill="#FFF" d="M457.9 588h-71.1c-1.5-21.8-4.899-40.9-10.1-57.3-5.3-16.4-12.101-30.9-20.5-43.4-8.4-12.5-17.601-23.399-27.5-32.5-9.9-9.1-20.101-16.899-30.6-23.1-24.3-12.5-51.6-20.7-82-24.4v-75.6c30.8 1.3 57.9 5.8 81.2 13.7s43.5 18.1 60.5 30.6 31.4 26.5 43 41.9c11.7 15.399 21.2 30.6 28.8 45.699C447 500.6 456.4 542.1 457.9 588z"/><path fill="#FFF" d="M583.1 586.1h-71.8c-1.8-35.8-7.5-67.8-17.3-95.899-9.8-28.101-21.9-52.601-36.3-73.7-14.4-21.1-30.4-39.1-47.9-54.1s-35-27.9-52.3-38.7c-42.1-23.8-89.2-39.1-141.4-45.9v-74.4c48.4 2.5 90.5 10.1 126.3 22.8 35.8 12.7 67 28.1 93.399 46.2 26.4 18.2 48.3 38.7 65.601 61.5 17.3 22.8 31.6 46 42.899 69.6C569.7 456.8 582.6 517.7 583.1 586.1z"/><path fill="#FF8300" d="M768.32 247.765c20.034 48.317 29.998 99.098 29.998 152.235 0 53.137-9.964 103.919-29.998 152.234-20.033 48.318-48.959 91.386-86.776 129.31-37.817 37.926-80.991 66.744-129.31 86.778-48.316 20.033-99.098 29.996-152.235 29.996-53.137 0-103.917-9.963-152.235-29.996-48.317-20.034-91.491-48.961-129.309-86.778s-66.851-80.991-86.777-129.31C11.644 503.919 1.681 453.137 1.681 400c0-53.138 9.963-103.918 29.997-152.235 20.034-48.317 48.959-91.491 86.777-129.309s80.992-66.851 129.309-86.777c48.317-19.927 99.098-29.997 152.235-29.997 53.138 0 103.919 9.963 152.235 29.997 48.318 20.034 91.385 48.959 129.31 86.777 37.926 37.817 66.851 80.992 86.776 129.309zM519.238 599.373h76.921c-.535-73.277-14.355-138.522-41.46-195.729-12.106-25.285-27.426-50.032-45.96-74.565-18.534-24.426-41.996-46.389-70.278-65.887-28.39-19.498-61.709-35.997-100.062-49.495-38.461-13.499-83.563-21.641-135.308-24.426v79.707c55.815 7.285 106.382 23.676 151.484 49.173 18.535 11.57 37.176 25.39 56.032 41.46 18.748 16.069 35.889 35.461 51.315 57.959 15.428 22.605 28.39 48.853 38.89 78.956 10.391 30.211 16.498 64.495 18.426 102.847zm-133.38 2.036h76.172c-1.607-49.175-11.679-93.526-30.213-133.272-8.034-16.071-18.319-32.461-30.853-48.96-12.536-16.498-27.855-31.497-46.068-44.889-18.32-13.391-39.853-24.426-64.815-32.782-24.961-8.463-53.995-13.392-86.991-14.677v80.991c32.461 4.071 61.708 12.75 87.849 26.142 11.249 6.748 22.177 14.998 32.782 24.746 10.607 9.857 20.355 21.428 29.462 34.819 9 13.391 16.284 28.925 21.962 46.495 5.571 17.57 9.106 38.033 10.713 61.387zm-68.029-57.637c0-15.32-5.571-28.604-16.712-40.068-11.143-11.355-24.641-17.141-40.497-17.141-15.534 0-29.033 5.678-40.496 17.141-11.463 11.464-17.141 24.748-17.141 40.068 0 16.069 5.678 29.782 17.141 40.925 11.356 11.142 24.855 16.712 40.496 16.712 15.856 0 29.354-5.57 40.497-16.712 11.141-11.142 16.712-24.748 16.712-40.925z"/></svg>